# xmcd
#
# Track frame offsets:
#	150
#	13494
#	29455
#	44648
#	60591
#	77289
#	93513
#	108349
#	122691
#	134736
#	160308
#	175557
#	189008
#	205059
#	220073
#	235151
#	250145
#
# Disc length: 3526 seconds
#
# Revision: 1
# Processed by: cddbd v1.5.2PL0 Copyright (c) Steve Scherf et al.
# Submitted via: audiograbber 1.83.01
#
DISCID=e20dc411
DTITLE=Munhoz and Mariano - Ao Vivo
DYEAR=2009
DGENRE=Sertanejo
TTITLE0=Putaiada do Caraio
TTITLE1=Alo, to num bar
TTITLE2=Fantasia de Amor
TTITLE3=Virei o Bagaco
TTITLE4=Somos Apenas Um
TTITLE5=Bererrao
TTITLE6=Sem ar
TTITLE7=Fogo no Rabo
TTITLE8=To Caindo Fora
TTITLE9=Frasco de Perfume, Preta
TTITLE10=Soh eu Amei
TTITLE11=Zenaide
TTITLE12=E soh dizer o preco
TTITLE13=Agora eu sei o que eh amor
TTITLE14=Rockerinha
TTITLE15=Zeh Goreh
TTITLE16=Na sua Estante
EXTD=Disco Promocional
EXTT0=
EXTT1=
EXTT2=
EXTT3=
EXTT4=
EXTT5=
EXTT6=
EXTT7=
EXTT8=
EXTT9=
EXTT10=
EXTT11=
EXTT12=
EXTT13=
EXTT14=
EXTT15=
EXTT16=
PLAYORDER=
